<svg width="36" height="37" fill="none" xmlns="http://www.w3.org/2000/svg"><path d="M13.5 16.25c0-1.195-1.055-2.25-2.25-2.25H9c-2.531 0-4.5 2.04-4.5 4.5V23c0 2.46 1.969 4.5 4.5 4.5h2.25c1.195 0 2.25-.984 2.25-2.25v-9zm-2.25 9H9A2.221 2.221 0 016.75 23v-4.5c0-1.195.984-2.25 2.25-2.25h2.25v9zM27 27.5c2.46 0 4.5-2.04 4.5-4.5v-4.5c0-2.46-2.04-4.5-4.5-4.5h-2.25c-1.266 0-2.25 1.055-2.25 2.25v9a2.22 2.22 0 002.25 2.25H27zm-2.25-11.25H27c1.195 0 2.25 1.055 2.25 2.25V23c0 1.266-1.055 2.25-2.25 2.25h-2.25v-9zM18 .5C7.945.5.21 8.797 0 18.5v1.688c0 .351.21.562.563.562h1.125c.28 0 .562-.21.562-.563V18.5C2.46 10.062 9.21 2.75 18 2.75c8.648 0 15.75 7.102 15.75 15.75v12.375a3.376 3.376 0 01-3.375 3.375h-5.836c.07-.352.211-.703.211-1.125 0-1.828-1.547-3.375-3.375-3.375h-4.5a3.376 3.376 0 00-3.375 3.375c0 1.898 1.477 3.375 3.375 3.375h13.5A5.597 5.597 0 0036 30.875V18.5c0-9.914-8.086-18-18-18zm3.375 33.75h-4.5a1.11 1.11 0 01-1.125-1.125c0-.563.492-1.125 1.125-1.125h4.5c.563 0 1.125.563 1.125 1.125 0 .633-.563 1.125-1.125 1.125z" fill="#fff"/></svg>