<svg width="36" height="34" fill="none" xmlns="http://www.w3.org/2000/svg"><path d="M20.734 10.438h-4.968c-.932 0-1.657.828-1.657 1.656v19.875c0 .931.725 1.656 1.657 1.656h4.968c.828 0 1.657-.725 1.657-1.656V12.094c0-.828-.828-1.656-1.657-1.656zm-13.25 9.937H2.516c-.932 0-1.657.828-1.657 1.656v9.938c0 .931.725 1.656 1.657 1.656h4.968c.829 0 1.657-.725 1.657-1.656V22.03c0-.828-.829-1.656-1.657-1.656zM33.984.5h-4.968c-.932 0-1.657.828-1.657 1.656V31.97c0 .931.725 1.656 1.657 1.656h4.968c.828 0 1.657-.725 1.657-1.656V2.156c0-.828-.828-1.656-1.657-1.656z" fill="#fff"/></svg>