<svg width="32" height="37" fill="none" xmlns="http://www.w3.org/2000/svg"><path d="M27.18 22.227l1.687-4.43c.281-.703-.21-1.547-1.055-1.547H24.79c.14-.492.211-1.055.211-1.688 0-.492-.07-.984-.21-1.476 2.882-.633 4.71-1.688 4.71-2.813 0-1.125-1.898-2.18-4.922-2.882-.633-2.32-1.898-4.782-2.883-5.977C21.273.852 20.57.5 19.937.5c-.703 0-.914.21-2.953 1.266-.914.421-1.687.14-2.039 0C12.835.71 12.695.5 11.992.5c-.633 0-1.265.352-1.758.914C9.25 2.61 7.984 5 7.352 7.391 4.398 8.094 2.5 9.148 2.5 10.273c0 1.125 1.758 2.18 4.64 2.813-.14.492-.14.984-.14 1.476 0 .633 0 1.196.14 1.688H4.189c-.844 0-1.336.844-1.055 1.617l1.828 4.219A9.369 9.369 0 00.25 30.242v3.164c0 1.688 1.406 3.094 3.094 3.094h25.242c1.687 0 3.164-1.406 3.164-3.094v-3.164a9.246 9.246 0 00-4.57-8.015zM9.25 14.562v-.492c.07 0 .352.211.422.352.281.844.492 1.758 1.125 2.32.562.563 3.305 1.758 4.5-1.758.21-.562 1.125-.562 1.336 0 1.125 3.375 3.797 2.461 4.5 1.758.633-.562.844-1.476 1.125-2.32.07-.14.351-.352.422-.352 0 .14.07.352.07.492a6.752 6.752 0 01-6.75 6.75 6.752 6.752 0 01-6.75-6.75zM9.18 9.29c.07-.21.843-4.008 2.812-6.539 2.04 1.055 2.672 1.477 4.008 1.477 1.266 0 1.898-.422 3.938-1.477v.07c1.968 2.461 2.812 6.258 2.812 6.47 1.547.35 2.531.562 3.586.983-1.688.704-5.273 1.477-10.336 1.477-5.133 0-8.719-.773-10.406-1.477 1.054-.421 2.11-.632 3.586-.984zM3.344 34.25c-.492 0-.844-.352-.844-.844v-3.164c0-2.601 1.336-4.922 3.586-6.187L7.844 23l-1.969-4.5h2.04c.35.703 4.5 7.664 4.5 7.664l-2.18 8.086H3.343zm9.281 0l2.25-8.438-1.547-2.671a8.186 8.186 0 002.672.422 8.08 8.08 0 002.602-.422l-1.477 2.672 2.25 8.437h-6.75zm16.875-.844c0 .492-.422.844-.914.844h-6.89l-2.18-8.086s4.148-6.96 4.5-7.664h2.18l-1.759 4.64 1.618.985c2.11 1.336 3.445 3.586 3.445 6.117v3.164z" fill="#fff"/></svg>